<svg xmlns="http://www.w3.org/2000/svg" width="77.331" height="77.331" viewBox="0 0 77.331 77.331">
  <path id="Path_1" data-name="Path 1" d="M77.531,14.453V63.519a2.228,2.228,0,0,0-.041.734,12.376,12.376,0,0,1-.245,1.713,13.671,13.671,0,0,1-1.305,3.752,15.045,15.045,0,0,1-3.712,4.609,14.086,14.086,0,0,1-4.364,2.488,15.069,15.069,0,0,1-3.752.816H14.394a4.907,4.907,0,0,0-.775,0c-.367-.041-.693-.082-1.06-.122a14.294,14.294,0,0,1-2.284-.53,15.506,15.506,0,0,1-4.65-2.488,14.715,14.715,0,0,1-3.671-4.4A14.263,14.263,0,0,1,.2,63.763a3.488,3.488,0,0,0,0-.653V14.29a14.643,14.643,0,0,1,1.55-6A14.679,14.679,0,0,1,6.6,2.788,15.724,15.724,0,0,1,10.519.912,15.381,15.381,0,0,1,14.108.3h49.27a2.228,2.228,0,0,0,.734.041.517.517,0,0,1,.245.041.245.245,0,0,0,.163.041c.163,0,.285.041.449.041,0,.041.041.041.082,0h.082a.368.368,0,0,0,.2.041.15.15,0,0,1,.122.041.368.368,0,0,0,.2.041c.041,0,.082,0,.082.041a.15.15,0,0,0,.122.041c.122.041.245.041.367.082.041.041.082.041.163.041a.15.15,0,0,1,.122.041c.082.041.122.082.2.082.082.041.2.041.286.082a.3.3,0,0,0,.245.082c.041,0,.082.041.122.041,0,.041.041.041.082.041.571.2,1.142.408,1.672.653a14.157,14.157,0,0,1,4.4,3.181,14.573,14.573,0,0,1,3.059,4.894,13.211,13.211,0,0,1,.857,3.956C77.49,13.882,77.449,14.167,77.531,14.453ZM19.247,58.094V70.9c0,.285,0,.326.286.326a11.847,11.847,0,0,0,2.937-.163,11.083,11.083,0,0,0,7.749-5.914A11.035,11.035,0,0,0,31.4,60.174V47.938c0-.122-.041-.163-.163-.163H29.811a.418.418,0,0,1-.285-.693l.122-.122c.53-.571,1.02-1.142,1.55-1.713a.524.524,0,0,0,.163-.408V35.131c0-.2,0-.2-.163-.2a9.843,9.843,0,0,0-2.447.082,10.413,10.413,0,0,0-2.733.734,11.238,11.238,0,0,0-5.628,5.18,10.525,10.525,0,0,0-1.224,4.935C19.247,49.937,19.247,54.015,19.247,58.094ZM58.483,47.938V35.213c0-.285.082-.326-.326-.326a11.673,11.673,0,0,0-3.141.245,10.542,10.542,0,0,0-3.752,1.591,10.974,10.974,0,0,0-4.894,8.116.338.338,0,0,0,.122.326c.286.285.53.571.816.857.286.326.612.653.9.979a.448.448,0,0,1-.326.775h-1.06c-.449,0-.449,0-.449.449v22.8c0,.2,0,.2.2.2a11.918,11.918,0,0,0,2.692-.122,11.317,11.317,0,0,0,2.366-.693,10.9,10.9,0,0,0,4.446-3.344,11.417,11.417,0,0,0,1.835-3.3,11.277,11.277,0,0,0,.612-3.467C58.524,56.177,58.483,52.058,58.483,47.938Zm-25.7,11.542V71.023c0,.122.041.163.163.2a11.649,11.649,0,0,0,5.425-.938A11.137,11.137,0,0,0,44,64.661a9.7,9.7,0,0,0,.938-4.16c.041-4.16,0-8.32,0-12.521,0-.245,0-.245-.245-.245H43.6a.439.439,0,0,1-.326-.082A.422.422,0,0,1,43.229,47l1.591-1.835a.542.542,0,0,0,.122-.326V35.131c0-.245,0-.245-.245-.286a13.245,13.245,0,0,0-2.2.041,10.8,10.8,0,0,0-2.57.653,11.062,11.062,0,0,0-5.261,4.16,10.857,10.857,0,0,0-1.835,4.935.586.586,0,0,0,.2.612c.082.082.122.163.2.2.449.489.9.979,1.305,1.468a.733.733,0,0,1,.163.367.411.411,0,0,1-.449.367H33.074c-.326,0-.286,0-.326.286v.367C32.788,52.139,32.788,55.81,32.788,59.481ZM47.879,19.51H44.127a2.372,2.372,0,0,0-2.121,2.284v7.423a.108.108,0,0,0,.122.122h7.464a1.129,1.129,0,0,0,.367-.041,2.375,2.375,0,0,0,1.917-2.366V19.551c0-.082-.041-.163-.122-.122h-.2C50.326,19.51,49.1,19.51,47.879,19.51Zm-13.011,0H31.483a3.4,3.4,0,0,0-.9.122A2.433,2.433,0,0,0,29,21.917V29.34a.088.088,0,0,0,.082.082h7.545a2.128,2.128,0,0,0,1.713-.9,2.494,2.494,0,0,0,.53-1.591v-7.26a.108.108,0,0,0-.122-.122h-.2C37.315,19.51,36.092,19.51,34.868,19.51ZM45.31,10.5h0V6.744c0-.245,0-.245-.245-.245H37.8a2.63,2.63,0,0,0-.816.122A2.341,2.341,0,0,0,35.4,8.906v7.382a.108.108,0,0,0,.122.122h7.464a1.655,1.655,0,0,0,.775-.163A2.4,2.4,0,0,0,45.269,14C45.31,12.862,45.31,11.679,45.31,10.5Z" transform="translate(-0.2 -0.3)" fill="#fee101"/>
</svg>
